<?xml version="1.0" standalone="no"?>
<!DOCTYPE svg PUBLIC "-//W3C//DTD SVG 20010904//EN"
 "http://www.w3.org/TR/2001/REC-SVG-20010904/DTD/svg10.dtd">
<svg version="1.0" xmlns="http://www.w3.org/2000/svg"
 width="512.000000pt" height="512.000000pt" viewBox="0 0 512.000000 512.000000"
 preserveAspectRatio="xMidYMid meet">
<metadata>
Created by potrace 1.11, written by Peter Selinger 2001-2013
</metadata>
<g transform="translate(0.000000,512.000000) scale(0.100000,-0.100000)"
fill="#000000" stroke="none">
<path d="M2369 5076 c-2 -2 -31 -6 -64 -9 -201 -20 -405 -66 -588 -133 -54
-20 -105 -33 -113 -30 -9 3 -12 1 -9 -4 3 -6 -6 -15 -22 -21 -60 -22 -182 -85
-281 -143 -153 -90 -176 -106 -307 -210 -380 -303 -674 -727 -822 -1186 -24
-77 -67 -242 -77 -295 -3 -16 -7 -43 -10 -60 -43 -230 -43 -623 0 -850 3 -16
8 -43 11 -60 11 -67 64 -265 91 -340 63 -173 102 -259 206 -450 13 -25 148
-228 156 -235 3 -3 21 -25 40 -50 67 -87 231 -258 335 -350 204 -180 497 -353
770 -453 131 -48 104 -39 242 -76 62 -16 134 -32 160 -36 25 -3 49 -8 52 -9 6
-4 26 -6 191 -26 67 -8 461 -5 515 4 17 3 52 8 79 11 27 3 51 7 55 9 4 3 25 7
47 10 56 9 69 11 164 36 453 116 887 373 1203 713 129 138 164 183 271 342 77
115 226 393 226 423 0 4 7 19 14 34 31 60 115 351 130 452 4 21 8 48 11 60 22
96 30 215 30 421 -1 230 -7 302 -47 500 -26 134 -104 396 -128 430 -3 6 -15
33 -25 60 -46 126 -195 382 -309 530 -236 309 -564 579 -893 735 -48 23 -96
46 -106 51 -48 25 -245 94 -347 122 -79 22 -228 52 -310 63 -25 3 -56 8 -70
11 -28 5 -466 14 -471 9z"/>
</g>
</svg>
